<?xml version="1.0" encoding="UTF-8"?>
<svg width="48px" height="48px" viewBox="0 0 48 48" version="1.1" xmlns="http://www.w3.org/2000/svg" xmlns:xlink="http://www.w3.org/1999/xlink">
    <!-- Generator: Sketch 63.1 (92452) - https://sketch.com -->
    <title>download</title>
    <desc>Created with Sketch.</desc>
    <g id="Welcome" stroke="none" stroke-width="1" fill="none" fill-rule="evenodd">
        <g id="Home" transform="translate(-76.000000, -516.000000)" fill="#EBEBEB" fill-rule="nonzero">
            <g id="Button-Copy" transform="translate(76.000000, 176.000000)">
                <g id="download" transform="translate(0.000000, 340.000000)">
                    <path d="M24,33.92 C23.47008,33.92 23.04,33.4730541 23.04,32.9223529 L23.04,0.997647059 C23.04,0.446945882 23.47008,0 24,0 C24.52992,0 24.96,0.446945882 24.96,0.997647059 L24.96,32.9223529 C24.96,33.4730541 24.52992,33.92 24,33.92 Z" id="Path"></path>
                    <path d="M24.0009956,33.92 C23.7461192,33.92 23.4912428,33.8227694 23.2961031,33.6302925 L15.3312162,25.693102 C14.9429279,25.3061639 14.9429279,24.6771416 15.3312162,24.2902035 C15.7195044,23.9032655 16.3507217,23.9032655 16.7390099,24.2902035 L24.0009956,31.5249527 L31.2609901,24.2902035 C31.6492783,23.9032655 32.2804956,23.9032655 32.6687838,24.2902035 C33.0570721,24.6771416 33.0570721,25.3061639 32.6687838,25.693102 L24.7038969,33.6302925 C24.5107484,33.8227694 24.255872,33.92 24.0009956,33.92 L24.0009956,33.92 Z" id="Path"></path>
                    <path d="M43,48 L5,48 C2.242,48 0,45.756 0,43 L0,33 C0,32.448 0.448,32 1,32 C1.552,32 2,32.448 2,33 L2,43 C2,44.654 3.346,46 5,46 L43,46 C44.654,46 46,44.654 46,43 L46,33 C46,32.448 46.448,32 47,32 C47.552,32 48,32.448 48,33 L48,43 C48,45.756 45.758,48 43,48 Z" id="Path"></path>
                </g>
            </g>
        </g>
    </g>
</svg>